<svg width="100%" height="100%" viewBox="0 0 400 300" xmlns="http://www.w3.org/2000/svg">
  <!-- 渐变和滤镜定义 -->
  <defs>
    <!-- 月亮基础颜色渐变 -->
    <linearGradient id="moonGradient" x1="0%" y1="0%" x2="100%" y2="100%">
      <stop offset="0%" stop-color="#ffffff" />
      <stop offset="70%" stop-color="#f0f0f0" />
      <stop offset="100%" stop-color="#e0e0e0" />
    </linearGradient>
    
    <!-- 月球表面纹理 -->
    <filter id="moonTexture" x="-20%" y="-20%" width="140%" height="140%">
      <feTurbulence type="fractalNoise" baseFrequency="0.05" numOctaves="2" seed="5" />
      <feDisplacementMap in="SourceGraphic" scale="5" />
    </filter>
    
    <!-- 月球表面阴影效果 -->
    <filter id="moonShadow" x="-20%" y="-20%" width="140%" height="140%">
      <feGaussianBlur in="SourceAlpha" stdDeviation="8" />
      <feOffset dx="4" dy="4" result="offsetblur" />
      <feComponentTransfer>
        <feFuncA type="linear" slope="0.3" />
      </feComponentTransfer>
      <feMerge>
        <feMergeNode />
        <feMergeNode in="SourceGraphic" />
      </feMerge>
    </filter>
    
    <!-- 月球陨石坑 -->
    <radialGradient id="craterGradient" cx="50%" cy="50%" r="50%" fx="50%" fy="50%">
      <stop offset="0%" stop-color="#d0d0d0" />
      <stop offset="80%" stop-color="#e0e0e0" stop-opacity="0.8" />
      <stop offset="100%" stop-color="#f0f0f0" stop-opacity="0" />
    </radialGradient>
  </defs>
  
  <!-- 月亮主体形状 -->
  <g transform="translate(200, 160)">
    <!-- 主月亮 -->
    <circle cx="0" cy="0" r="130" fill="url(#moonGradient)" filter="url(#moonShadow)" />
    
    <!-- 月球纹理 -->
    <circle cx="0" cy="0" r="130" fill="url(#moonGradient)" fill-opacity="0.4" filter="url(#moonTexture)" />
    
    <!-- 月球表面特征 - 陨石坑 -->
    <circle cx="-60" cy="-40" r="15" fill="url(#craterGradient)" />
    <circle cx="30" cy="-70" r="10" fill="url(#craterGradient)" />
    <circle cx="70" cy="-20" r="12" fill="url(#craterGradient)" />
    <circle cx="40" cy="50" r="18" fill="url(#craterGradient)" />
    <circle cx="-30" cy="30" r="22" fill="url(#craterGradient)" />
    <circle cx="-70" cy="60" r="8" fill="url(#craterGradient)" />
    
    <!-- 月海 (月球表面的暗色区域) -->
    <path d="M-40,-70 C-20,-90 20,-90 50,-60 C80,-30 90,20 70,50 C50,80 10,90 -30,80 C-70,70 -90,30 -80,-10 C-70,-40 -60,-50 -40,-70 Z" fill="#e8e8e8" fill-opacity="0.3" />
    
    <!-- 月球阴影效果 - 微妙的光暗变化 -->
    <circle cx="0" cy="0" r="130" fill="radial-gradient(circle at 70% 70%, transparent 60%, rgba(0,0,0,0.05) 80%, rgba(0,0,0,0.1) 100%)" />
  </g>
  
  <!-- 前景星星装饰 -->
  <g fill="white">
    <circle cx="50" cy="50" r="1" opacity="0.7" />
    <circle cx="100" cy="30" r="1.2" opacity="0.8" />
    <circle cx="150" cy="70" r="0.8" opacity="0.6" />
    <circle cx="320" cy="40" r="1.1" opacity="0.7" />
    <circle cx="350" cy="90" r="0.9" opacity="0.8" />
  </g>
</svg> 