<svg width="100%" height="100%" viewBox="0 0 1000 1000" xmlns="http://www.w3.org/2000/svg">
  <!-- Blue gradient background -->
  <defs>
    <linearGradient id="blueGradient" x1="0%" y1="0%" x2="0%" y2="100%">
      <stop offset="0%" stop-color="#1e3a8a" />
      <stop offset="100%" stop-color="#172554" />
    </linearGradient>
    <filter id="noise" x="0%" y="0%" width="100%" height="100%">
      <feTurbulence type="fractalNoise" baseFrequency="0.01" numOctaves="3" seed="1" />
      <feDisplacementMap in="SourceGraphic" scale="5" />
    </filter>
  </defs>

  <!-- Background -->
  <rect width="100%" height="100%" fill="url(#blueGradient)" />
  
  <!-- Network patterns -->
  <g stroke="#3b82f6" stroke-opacity="0.15" stroke-width="1">
    <path d="M0,300 C200,250 400,350 600,300 S800,250 1000,300" filter="url(#noise)" />
    <path d="M0,400 C200,450 400,350 600,400 S800,450 1000,400" filter="url(#noise)" />
    <path d="M0,500 C300,550 500,450 700,500 S900,550 1000,500" filter="url(#noise)" />
    <path d="M0,600 C300,650 500,550 700,600 S900,650 1000,600" filter="url(#noise)" />
    <path d="M0,700 C200,750 400,650 600,700 S800,750 1000,700" filter="url(#noise)" />
    <path d="M200,0 C150,200 250,400 200,600 S150,800 200,1000" filter="url(#noise)" />
    <path d="M400,0 C450,200 350,400 400,600 S450,800 400,1000" filter="url(#noise)" />
    <path d="M600,0 C550,300 450,500 500,700 S550,900 600,1000" filter="url(#noise)" />
    <path d="M800,0 C750,300 650,500 700,700 S750,900 800,1000" filter="url(#noise)" />
  </g>

  <!-- Stars/dots -->
  <!-- White stars -->
  <g fill="white">
    <circle cx="100" cy="150" r="2" opacity="0.8" />
    <circle cx="220" cy="90" r="1.5" opacity="0.7" />
    <circle cx="340" cy="180" r="2" opacity="0.9" />
    <circle cx="500" cy="120" r="1.8" opacity="0.8" />
    <circle cx="650" cy="200" r="2.2" opacity="0.7" />
    <circle cx="780" cy="100" r="1.7" opacity="0.9" />
    <circle cx="900" cy="150" r="2" opacity="0.8" />
    <circle cx="150" cy="250" r="1.6" opacity="0.7" />
    <circle cx="300" cy="300" r="1.9" opacity="0.9" />
    <circle cx="450" cy="220" r="1.5" opacity="0.8" />
    <circle cx="600" cy="270" r="2.1" opacity="0.7" />
    <circle cx="750" cy="320" r="1.8" opacity="0.9" />
    <circle cx="870" cy="270" r="1.7" opacity="0.8" />
    <circle cx="180" cy="380" r="2" opacity="0.7" />
    <circle cx="320" cy="420" r="1.6" opacity="0.9" />
    <circle cx="470" cy="350" r="1.9" opacity="0.8" />
    <circle cx="630" cy="400" r="1.7" opacity="0.7" />
    <circle cx="780" cy="430" r="2" opacity="0.9" />
    <circle cx="900" cy="380" r="1.5" opacity="0.8" />
    <circle cx="150" cy="650" r="1.8" opacity="0.7" />
    <circle cx="250" cy="700" r="1.4" opacity="0.8" />
    <circle cx="350" cy="750" r="2.1" opacity="0.6" />
    <circle cx="450" cy="650" r="1.6" opacity="0.9" />
    <circle cx="550" cy="720" r="1.9" opacity="0.7" />
    <circle cx="650" cy="680" r="1.5" opacity="0.8" />
    <circle cx="750" cy="750" r="2.2" opacity="0.7" />
    <circle cx="850" cy="700" r="1.7" opacity="0.9" />
    <circle cx="950" cy="650" r="1.8" opacity="0.8" />
    <circle cx="200" cy="780" r="1.4" opacity="0.7" />
    <circle cx="400" cy="820" r="1.6" opacity="0.8" />
    <circle cx="600" cy="850" r="1.9" opacity="0.6" />
    <circle cx="800" cy="800" r="1.7" opacity="0.9" />
  </g>
  
  <!-- Red/orange stars -->
  <g>
    <circle cx="120" cy="220" r="1.7" fill="#ff6b6b" opacity="0.8" />
    <circle cx="380" cy="150" r="1.5" fill="#ffa502" opacity="0.7" />
    <circle cx="520" cy="300" r="1.8" fill="#ff6348" opacity="0.9" />
    <circle cx="720" cy="180" r="1.6" fill="#ff9f43" opacity="0.8" />
    <circle cx="850" cy="250" r="1.9" fill="#ff4757" opacity="0.7" />
    <circle cx="200" cy="350" r="1.7" fill="#ff6b6b" opacity="0.9" />
    <circle cx="420" cy="280" r="1.5" fill="#ffa502" opacity="0.8" />
    <circle cx="570" cy="380" r="1.8" fill="#ff6348" opacity="0.7" />
    <circle cx="700" cy="320" r="1.6" fill="#ff9f43" opacity="0.9" />
    <circle cx="830" cy="410" r="1.9" fill="#ff4757" opacity="0.8" />
    <circle cx="280" cy="680" r="1.7" fill="#ff6b6b" opacity="0.7" />
    <circle cx="430" cy="720" r="1.5" fill="#ffa502" opacity="0.8" />
    <circle cx="680" cy="750" r="1.8" fill="#ff6348" opacity="0.6" />
    <circle cx="780" cy="680" r="1.6" fill="#ff9f43" opacity="0.9" />
    <circle cx="880" cy="740" r="1.9" fill="#ff4757" opacity="0.7" />
  </g>
  
  <!-- Black dots -->
  <g fill="black">
    <circle cx="150" cy="120" r="2.5" opacity="0.5" />
    <circle cx="300" cy="200" r="3" opacity="0.4" />
    <circle cx="550" cy="150" r="4" opacity="0.5" />
    <circle cx="700" cy="220" r="2.5" opacity="0.4" />
    <circle cx="850" cy="180" r="3.5" opacity="0.5" />
    <circle cx="200" cy="270" r="3" opacity="0.4" />
    <circle cx="450" cy="300" r="2.5" opacity="0.5" />
    <circle cx="650" cy="250" r="4" opacity="0.4" />
    <circle cx="800" cy="290" r="3" opacity="0.5" />
    <circle cx="350" cy="650" r="3" opacity="0.4" />
    <circle cx="500" cy="700" r="3.5" opacity="0.5" />
    <circle cx="650" cy="730" r="2.5" opacity="0.4" />
    <circle cx="750" cy="680" r="4" opacity="0.5" />
  </g>
</svg> 